<svg width="26" height="26" viewBox="0 0 26 26" fill="none" xmlns="http://www.w3.org/2000/svg">
<path d="M8.86189 20.4395C8.86189 20.5403 8.74597 20.621 8.5998 20.621C8.43347 20.6361 8.31754 20.5554 8.31754 20.4395C8.31754 20.3387 8.43347 20.2581 8.57964 20.2581C8.73085 20.2429 8.86189 20.3236 8.86189 20.4395ZM7.29435 20.2127C7.25907 20.3135 7.35988 20.4294 7.51109 20.4597C7.64214 20.5101 7.79335 20.4597 7.82359 20.3589C7.85383 20.2581 7.75806 20.1421 7.60685 20.0968C7.47581 20.0615 7.32964 20.1119 7.29435 20.2127ZM9.52218 20.127C9.37601 20.1623 9.2752 20.2581 9.29032 20.374C9.30544 20.4748 9.43649 20.5403 9.5877 20.505C9.73387 20.4698 9.83468 20.374 9.81956 20.2732C9.80443 20.1774 9.66835 20.1119 9.52218 20.127ZM12.8387 0.8125C5.84778 0.8125 0.5 6.11996 0.5 13.1109C0.5 18.7006 4.01815 23.4839 9.04335 25.1673C9.68851 25.2833 9.91532 24.8851 9.91532 24.5575C9.91532 24.245 9.9002 22.5212 9.9002 21.4627C9.9002 21.4627 6.37198 22.2188 5.63105 19.9607C5.63105 19.9607 5.05645 18.494 4.22984 18.1159C4.22984 18.1159 3.0756 17.3246 4.31048 17.3397C4.31048 17.3397 5.56552 17.4405 6.25605 18.6401C7.35988 20.5857 9.20968 20.0262 9.93044 19.6936C10.0464 18.8871 10.374 18.3276 10.7369 17.995C7.91935 17.6825 5.07661 17.2742 5.07661 12.4254C5.07661 11.0393 5.45968 10.3438 6.26613 9.45665C6.13508 9.12903 5.70665 7.77823 6.39718 6.03427C7.4506 5.70665 9.875 7.39516 9.875 7.39516C10.8831 7.1129 11.9667 6.96673 13.0403 6.96673C14.1139 6.96673 15.1976 7.1129 16.2056 7.39516C16.2056 7.39516 18.63 5.70161 19.6835 6.03427C20.374 7.78327 19.9456 9.12903 19.8145 9.45665C20.621 10.3488 21.1149 11.0444 21.1149 12.4254C21.1149 17.2893 18.1462 17.6774 15.3286 17.995C15.7923 18.3931 16.1855 19.1492 16.1855 20.3337C16.1855 22.0323 16.1704 24.1341 16.1704 24.5474C16.1704 24.875 16.4022 25.2732 17.0423 25.1573C22.0827 23.4839 25.5 18.7006 25.5 13.1109C25.5 6.11996 19.8296 0.8125 12.8387 0.8125ZM5.39919 18.1966C5.33367 18.247 5.34879 18.3629 5.43448 18.4587C5.51512 18.5393 5.63105 18.5746 5.69657 18.5091C5.7621 18.4587 5.74698 18.3427 5.66129 18.247C5.58065 18.1663 5.46472 18.1311 5.39919 18.1966ZM4.85484 17.7883C4.81956 17.8538 4.86996 17.9345 4.97077 17.9849C5.05141 18.0353 5.15222 18.0202 5.1875 17.9496C5.22278 17.8841 5.17238 17.8034 5.07157 17.753C4.97077 17.7228 4.89012 17.7379 4.85484 17.7883ZM6.4879 19.5827C6.40726 19.6482 6.4375 19.7994 6.55343 19.8952C6.66935 20.0111 6.81552 20.0262 6.88105 19.9456C6.94657 19.88 6.91633 19.7288 6.81552 19.6331C6.70464 19.5171 6.55343 19.502 6.4879 19.5827ZM5.91331 18.8417C5.83266 18.8921 5.83266 19.0232 5.91331 19.1391C5.99395 19.255 6.13004 19.3054 6.19556 19.255C6.27621 19.1895 6.27621 19.0585 6.19556 18.9425C6.125 18.8266 5.99395 18.7762 5.91331 18.8417Z" fill="#D8C7B5"/>
</svg>
