<svg width="158" height="53" viewBox="0 0 158 53" fill="none" xmlns="http://www.w3.org/2000/svg">
<path d="M36.1199 3.92066C36.1199 3.92066 3.90541 6.22024 1.95303 7.24227C0.000651836 8.2643 1.5945 11.1638 1.95303 13.63M36.1199 3.92066L39.7806 48.3791M36.1199 3.92066C36.1199 3.92066 39.7806 3.47083 43.4645 3.15414C47.089 2.84255 51.3543 2.28926 55.423 2.02505M1.95303 13.63C2.32947 16.2193 3.69305 17.408 3.90542 20.0177C4.19589 23.5872 2.11985 25.3823 1.95303 28.9605C1.8651 30.8466 2.12034 32.363 2.4763 33.8151M1.95303 13.63L34.1907 11.0749M3.90542 40.4583C4.26684 44.8324 2.44103 50.1676 3.90542 51.7007C5.36981 53.2337 39.7806 48.3791 39.7806 48.3791M3.90542 40.4583L36.1199 38.1587M3.90542 40.4583C3.68544 37.796 2.98003 35.87 2.4763 33.8151M39.7806 48.3791C39.7806 48.3791 42.8513 48.2945 46.8812 47.6125C51.0634 46.9048 54.4214 46.7262 59.5487 45.5685M59.5487 45.5685C64.676 44.4108 68.9668 42.6067 69.5778 42.2469C73.4826 39.9473 76.4112 38.4143 79.5838 34.5816C82.7565 30.749 84.9297 25.8943 84.9297 25.8943L138.132 20.0177C138.132 20.0177 158.389 18.4846 156.924 8.51981C155.46 -1.44501 135.936 1.36558 135.936 1.36558L110.433 4.30392L82 7.24227L77.5 5C77.5 5 73 3.15414 70 2.5C67 1.84586 64 1.8766 59.5487 1.8766C58.2203 1.8766 56.8335 1.93345 55.423 2.02505M59.5487 45.5685L55.423 2.02505M1.95303 8.51981L34.1907 5.70922M4.90479 18.7401L36.1199 16.1851M4.90479 23.5948L35.1669 21.5507M1.95303 31.5155L36.1199 28.9605M3.19644 28.4494L35.1669 25.8943M3.67493 38.6698L36.1199 36.3702M4.90479 43.5244L37.3633 40.4583M3.90542 48.3791L37.3633 45.5685M3.90542 36.3702L35.1669 33.8151M3.90542 16.1851L35.1669 13.63M1.95303 11.0749L35.1669 8.51981M4.90479 21.5507L35.1669 18.7401M3.90542 25.8943L34.1907 23.5948M4.90479 45.5685L37.3633 43.5244M3.90542 50.6786L37.8514 47.6125M2.4763 33.8151L36.1199 31.5155M142.548 7.24227C141.231 8.81924 141.231 11.031 142.548 12.6079C144.055 14.4102 146.899 14.4102 148.406 12.6079C149.912 10.8057 149.724 8.81924 148.406 7.24227C146.899 5.44002 144.055 5.44002 142.548 7.24227Z" stroke="black"/>
</svg>
