<svg width="175" height="52" viewBox="0 0 175 52" fill="none" xmlns="http://www.w3.org/2000/svg">
<path d="M1.03262 20.1919C5.534 17.7777 9.08639 16.1424 13.0151 13.0538C14.2328 12.0965 15.3107 10.9941 16.2913 9.84012C16.9852 9.0234 18.4737 7.02219 17.332 6.90901C16.5223 6.82874 14.583 8.90259 14.5355 8.95191C12.1958 11.382 10.385 14.232 8.90629 17.1396C6.64949 21.5773 5.08846 26.5626 4.7432 31.4399C4.5647 33.9616 4.84591 38.5819 8.97869 36.5916C13.2236 34.5473 16.6627 30.4532 19.4588 27.0715C23.1322 22.6288 26.0221 17.7032 28.0927 12.5048C28.1043 12.4757 28.8138 10.4776 28.6629 11.3259C28.1355 14.2902 26.8924 17.1878 25.8573 20.0304C24.7054 23.1936 23.5395 26.3677 22.6807 29.607C22.6661 29.6619 21.7983 33.4168 22.4454 33.2083C23.1942 32.967 23.9238 31.7523 24.355 31.2703C26.1641 29.2483 27.9519 27.1528 29.9751 25.2951C30.2089 25.0804 32.6227 22.6925 33.1608 23.2926C34.2015 24.4532 32.9122 27.4239 32.7445 28.7188C32.6647 29.335 32.705 30.8192 33.8215 30.0188C35.7169 28.6598 37.2025 26.2908 38.6362 24.5603C39.8611 23.0816 40.9359 21.5033 42.1929 20.0465C43.1401 18.9489 41.6593 21.449 41.5594 21.6292C41.1443 22.3776 37.7294 27.63 40.7177 26.4336C42.3831 25.7669 43.8182 24.7069 45.2157 23.6801C45.5703 23.4196 47.6926 21.5606 47.08 23.0665C46.2021 25.2246 43.4828 28.7835 44.6636 31.1654C45.7319 33.3204 49.5159 28.0918 49.9942 27.5237C51.1238 26.1818 52.2325 24.7673 52.9264 23.1957C53.4814 21.9387 52.6363 22.8121 52.2658 23.3572C50.9108 25.3502 50.5778 29.768 54.6641 28.0243C56.999 27.028 61.1452 22.9371 60.5286 20.2645C60.3885 19.6576 59.8935 20.3389 59.8408 20.5795C59.5826 21.7582 59.9711 23.0723 60.2661 24.2131C60.6861 25.8369 62.3656 30.6254 59.0625 31.1412C58.475 31.2329 58.0521 30.884 58.266 30.366C58.6583 29.416 60.1878 29.544 61.0897 29.4859C66.2111 29.1555 69.4325 25.2198 71.6241 21.4031C72.9937 19.0179 73.9351 16.4433 74.7102 13.8613C74.7885 13.6007 75.7745 9.60049 75.2623 9.92894C74.21 10.6038 73.5239 12.2733 73.0359 13.2638C71.3063 16.7749 70.0762 20.4154 69.3616 24.1969C69.0078 26.0687 68.173 28.8763 69.0448 30.7294C69.9749 32.7063 73.0653 29.71 73.7962 29.0579C76.0625 27.0359 78.0183 24.7346 79.6788 22.2913C80.1112 21.655 81.1577 19.6252 80.7467 20.2726C80.0092 21.4346 79.1837 22.644 78.81 23.9466C78.4754 25.1127 78.0689 28.1895 79.7783 28.7995C81.234 29.319 82.9151 27.5161 83.7695 26.7647C84.258 26.335 87.5214 23.9297 86.7922 26.2317C86.7054 26.506 86.1222 27.4829 86.3669 27.7498C86.5752 27.977 88.4451 26.1324 88.6204 25.9734C89.2781 25.3766 93.6105 20.651 93.5256 23.341C93.479 24.8178 93.3626 29.6001 96.3311 28.0243C98.5674 26.8373 103.698 23.2166 103.282 20.531C103.067 19.1456 100.835 20.3696 100.313 20.749C98.4874 22.0776 97.0867 24.1105 97.4353 26.2721C97.8345 28.748 100.014 30.0279 102.739 29.9784C107.097 29.8992 110.235 27.3925 113.599 25.2789" stroke="black" stroke-opacity="0.72" stroke-width="2" stroke-linecap="round"/>
<path d="M60.5913 12.7473C69.3964 13.8762 71.2153 14.4359 80.6084 14.1313C87.7803 13.8988 97.1037 12.7516 104.217 11.5908C109.889 10.6651 115.298 9.50723 120.281 6.90793C122.469 5.76661 124.454 4.36953 126.571 3.13508C126.673 3.07543 129.277 1.64722 129.121 2.04493C128.34 4.03488 126.851 5.83295 125.785 7.70421C122.696 13.1229 120.297 18.9171 117.498 24.464C117.223 25.0089 116.058 26.8213 116.308 27.5449C116.573 28.3147 117.464 26.3059 117.986 25.649C122.424 20.0683 127.047 14.5899 131.607 9.08823C133.269 7.08314 135.013 4.51961 137.26 2.96444C139.666 1.29887 139.128 6.18862 139.013 6.93637C138.062 13.1112 134.883 18.8937 134.008 25.0897C133.411 29.3222 138.945 25.3226 140.341 24.1607C141.685 23.0415 147.087 16.7184 149.393 18.4066C149.847 18.7389 150.875 21.2202 149.967 20.8239C148.147 20.03 146.484 20.124 145.696 22.1605C144.433 25.4242 148.226 25.9591 150.817 24.8432C150.905 24.8054 152.475 23.7428 152.612 23.8384C152.988 24.099 151.149 26.7394 151.093 26.8339C145.838 35.6666 138.402 43.6889 128.388 48.5516C126.532 49.4528 122.122 51.4873 119.538 50.893C115.908 50.0586 119.622 45.9817 120.143 45.3096C123.339 41.1844 127.395 38.1486 131.915 35.1949C145.107 26.5754 159.967 19.9789 174 12.5767" stroke="black" stroke-opacity="0.72" stroke-width="2" stroke-linecap="round"/>
<path d="M55.0452 15.8615C49.8659 13.0252 53.096 19.4927 54.174 19.2362C55.4096 18.9422 56.2223 15.3869 57.117 14.487C58.5145 13.0815 62.1996 11.6326 60.9526 14.9704C59.9855 17.5589 57.1639 19.1668 54.6627 20.4686" stroke="black" stroke-opacity="0.72" stroke-width="2" stroke-linecap="round"/>
<path d="M83.3495 15.6915C82.7356 15.2382 81.9607 14.2291 81.2884 14.6108C80.5228 15.0455 81.3907 17.0287 81.5965 17.5305C81.7578 17.9239 82.2906 18.984 82.3827 18.5733C82.7997 16.7128 83.1746 15.4992 84.8689 14.1179C85.8956 13.2808 89.3307 11.9504 89.2994 14.3264C89.271 16.479 84.0687 18.0517 82.3933 19.2748" stroke="black" stroke-opacity="0.72" stroke-width="2" stroke-linecap="round"/>
</svg>
