<svg width="188" height="72" viewBox="0 0 188 72" fill="none" xmlns="http://www.w3.org/2000/svg">
<g filter="url(#filter0_d)">
<path d="M152.913 30.6667L180 62H152.913H127.573H99.6116H72.5243H46.3107H23.1553H0V30.6667V2H23.1553H46.3107H72.5243H99.6116H127.573H153.786H180L166.456 16.3333L152.913 30.6667Z" fill="#FCE0DA"/>
<path d="M0 2V30.6667M0 2H23.1553M0 2L46.3107 62M152.913 30.6667L180 62H152.913M152.913 30.6667L127.573 2M152.913 30.6667L166.456 16.3333M0 30.6667V62H23.1553M0 30.6667L23.1553 62M127.573 2H153.786M127.573 2H99.6116M153.786 2H180L166.456 16.3333M153.786 2L166.456 16.3333M99.6116 2L152.913 62M99.6116 2H72.5243M152.913 62H127.573M72.5243 2L127.573 62M72.5243 2H46.3107M127.573 62H99.6116M46.3107 2L99.6116 62M46.3107 2H23.1553M99.6116 62H72.5243M72.5243 62L23.1553 2M72.5243 62H46.3107M46.3107 62H23.1553" stroke="#EAD9BF" stroke-width="3"/>
</g>
<defs>
<filter id="filter0_d" x="-5.5" y="0.5" width="192.981" height="71" filterUnits="userSpaceOnUse" color-interpolation-filters="sRGB">
<feFlood flood-opacity="0" result="BackgroundImageFix"/>
<feColorMatrix in="SourceAlpha" type="matrix" values="0 0 0 0 0 0 0 0 0 0 0 0 0 0 0 0 0 0 127 0" result="hardAlpha"/>
<feOffset dy="4"/>
<feGaussianBlur stdDeviation="2"/>
<feComposite in2="hardAlpha" operator="out"/>
<feColorMatrix type="matrix" values="0 0 0 0 0 0 0 0 0 0 0 0 0 0 0 0 0 0 0.25 0"/>
<feBlend mode="normal" in2="BackgroundImageFix" result="effect1_dropShadow"/>
<feBlend mode="normal" in="SourceGraphic" in2="effect1_dropShadow" result="shape"/>
</filter>
</defs>
</svg>
