<svg width="168" height="72" viewBox="0 0 168 72" fill="none" xmlns="http://www.w3.org/2000/svg">
<g filter="url(#filter0_d)">
<path d="M135.922 30.6667L160 62H135.922H113.398H88.5437H64.466H41.165H20.5825H0V30.6667V2H20.5825H41.165H64.466H88.5437H113.398H136.699H160L147.961 16.3333L135.922 30.6667Z" fill="#FCE0DA"/>
<path d="M0 2V30.6667M0 2H20.5825M0 2L41.165 62M135.922 30.6667L160 62H135.922M135.922 30.6667L113.398 2M135.922 30.6667L147.961 16.3333M0 30.6667V62H20.5825M0 30.6667L20.5825 62M113.398 2H136.699M113.398 2H88.5437M136.699 2H160L147.961 16.3333M136.699 2L147.961 16.3333M88.5437 2L135.922 62M88.5437 2H64.466M135.922 62H113.398M64.466 2L113.398 62M64.466 2H41.165M113.398 62H88.5437M41.165 2L88.5437 62M41.165 2H20.5825M88.5437 62H64.466M64.466 62L20.5825 2M64.466 62H41.165M41.165 62H20.5825" stroke="#EAD9BF" stroke-width="3"/>
</g>
<defs>
<filter id="filter0_d" x="-5.5" y="0.5" width="172.719" height="71" filterUnits="userSpaceOnUse" color-interpolation-filters="sRGB">
<feFlood flood-opacity="0" result="BackgroundImageFix"/>
<feColorMatrix in="SourceAlpha" type="matrix" values="0 0 0 0 0 0 0 0 0 0 0 0 0 0 0 0 0 0 127 0" result="hardAlpha"/>
<feOffset dy="4"/>
<feGaussianBlur stdDeviation="2"/>
<feComposite in2="hardAlpha" operator="out"/>
<feColorMatrix type="matrix" values="0 0 0 0 0 0 0 0 0 0 0 0 0 0 0 0 0 0 0.25 0"/>
<feBlend mode="normal" in2="BackgroundImageFix" result="effect1_dropShadow"/>
<feBlend mode="normal" in="SourceGraphic" in2="effect1_dropShadow" result="shape"/>
</filter>
</defs>
</svg>
