<svg width="924" height="475" viewBox="0 0 924 475" fill="none" xmlns="http://www.w3.org/2000/svg">
<path fill-rule="evenodd" clip-rule="evenodd" d="M4 0C1.79086 0 0 1.79087 0 4.00001V471C0 473.209 1.79084 475 3.99998 475H916C918.209 475 920 473.209 920 471V4C920 1.79086 918.209 0 916 0H899.5H844.5H789.5H734.5H679.5H624.5H569.5H514.5H459.5H404.5H349.5H294.5H239.5H184.5H129.5H74.5H19.5H4ZM19.5 0C26.4036 0 32 5.59644 32 12.5C32 19.4036 26.4036 25 19.5 25C12.5964 25 7 19.4036 7 12.5C7 5.59644 12.5964 0 19.5 0ZM74.5 0C81.4036 0 87 5.59644 87 12.5C87 19.4036 81.4036 25 74.5 25C67.5964 25 62 19.4036 62 12.5C62 5.59644 67.5964 0 74.5 0ZM129.5 0C136.404 0 142 5.59644 142 12.5C142 19.4036 136.404 25 129.5 25C122.596 25 117 19.4036 117 12.5C117 5.59644 122.596 0 129.5 0ZM184.5 0C191.404 0 197 5.59644 197 12.5C197 19.4036 191.404 25 184.5 25C177.596 25 172 19.4036 172 12.5C172 5.59644 177.596 0 184.5 0ZM239.5 0C246.404 0 252 5.59644 252 12.5C252 19.4036 246.404 25 239.5 25C232.596 25 227 19.4036 227 12.5C227 5.59644 232.596 0 239.5 0ZM294.5 0C301.404 0 307 5.59644 307 12.5C307 19.4036 301.404 25 294.5 25C287.596 25 282 19.4036 282 12.5C282 5.59644 287.596 0 294.5 0ZM349.5 0C356.404 0 362 5.59644 362 12.5C362 19.4036 356.404 25 349.5 25C342.596 25 337 19.4036 337 12.5C337 5.59644 342.596 0 349.5 0ZM404.5 0C411.404 0 417 5.59644 417 12.5C417 19.4036 411.404 25 404.5 25C397.596 25 392 19.4036 392 12.5C392 5.59644 397.596 0 404.5 0ZM459.5 0C466.404 0 472 5.59644 472 12.5C472 19.4036 466.404 25 459.5 25C452.596 25 447 19.4036 447 12.5C447 5.59644 452.596 0 459.5 0ZM514.5 0C521.404 0 527 5.59644 527 12.5C527 19.4036 521.404 25 514.5 25C507.596 25 502 19.4036 502 12.5C502 5.59644 507.596 0 514.5 0ZM569.5 0C576.404 0 582 5.59644 582 12.5C582 19.4036 576.404 25 569.5 25C562.596 25 557 19.4036 557 12.5C557 5.59644 562.596 0 569.5 0ZM624.5 0C631.404 0 637 5.59644 637 12.5C637 19.4036 631.404 25 624.5 25C617.596 25 612 19.4036 612 12.5C612 5.59644 617.596 0 624.5 0ZM679.5 0C686.404 0 692 5.59644 692 12.5C692 19.4036 686.404 25 679.5 25C672.596 25 667 19.4036 667 12.5C667 5.59644 672.596 0 679.5 0ZM734.5 0C741.404 0 747 5.59644 747 12.5C747 19.4036 741.404 25 734.5 25C727.596 25 722 19.4036 722 12.5C722 5.59644 727.596 0 734.5 0ZM789.5 0C796.404 0 802 5.59644 802 12.5C802 19.4036 796.404 25 789.5 25C782.596 25 777 19.4036 777 12.5C777 5.59644 782.596 0 789.5 0ZM844.5 0C851.404 0 857 5.59644 857 12.5C857 19.4036 851.404 25 844.5 25C837.596 25 832 19.4036 832 12.5C832 5.59644 837.596 0 844.5 0ZM899.5 0C906.404 0 912 5.59644 912 12.5C912 19.4036 906.404 25 899.5 25C892.596 25 887 19.4036 887 12.5C887 5.59644 892.596 0 899.5 0Z" fill="white"/>
<line x1="3" y1="313.5" x2="923.002" y2="313.5" stroke="#C1C1C1"/>
<line x1="3" y1="365.5" x2="923.002" y2="365.5" stroke="#C1C1C1"/>
<line x1="3" y1="417.5" x2="923.002" y2="417.5" stroke="#C1C1C1"/>
<line x1="3" y1="157.5" x2="923.002" y2="157.5" stroke="#C1C1C1"/>
<line x1="3" y1="209.5" x2="923.002" y2="209.5" stroke="#C1C1C1"/>
<line x1="3" y1="261.5" x2="923.002" y2="261.5" stroke="#C1C1C1"/>
<line x1="3" y1="105.5" x2="923.002" y2="105.5" stroke="#C1C1C1"/>
</svg>
