<svg width="161" height="32" viewBox="0 0 161 32" fill="none" xmlns="http://www.w3.org/2000/svg">
<path d="M18.5224 16.5221C18.5224 16.5221 1.5272 16.5221 1.02733 16.9022C0.527459 17.2823 7.02563 19.4112 9.02506 19.8293C11.0245 20.2475 18.5224 19.6041 18.5224 19.6041M18.5224 16.5221C18.5224 16.5221 94.001 13.5569 116.495 14.3933C138.988 15.2296 130.99 16.0659 132.49 16.9022C133.99 17.7385 18.5224 19.6041 18.5224 19.6041M18.5224 16.5221C18.5224 16.5221 43.5153 5.61195 43.0154 6.44827C42.5156 7.28459 37.0171 12.3025 37.0171 12.7206C37.0171 13.1388 46.7644 8.1209 46.7644 8.1209C46.7644 8.1209 56.5116 2.26669 56.5116 3.52117C56.5116 4.77565 49.5136 9.37537 48.5139 10.2117C47.5142 11.048 69.5079 0.594064 74.0066 1.01222C78.5054 1.43039 60.5105 9.37537 59.5108 10.2117C58.511 11.048 73.0842 4.59578 82.5042 3.52117C93.5011 2.26667 107.596 1.67189 123.493 3.52116C135.419 4.90857 145.486 7.70273 152.984 11.048C160.482 14.3933 159.982 16.9022 159.982 16.9022C159.982 16.9022 161.982 26.1017 123.493 28.6106C107.491 29.6537 98.5003 27.1989 82.5042 26.1017C73.521 25.4855 58.511 24.0109 59.5108 24.429C60.5105 24.8472 79.5051 28.6106 78.5054 30.7014C77.5056 32.7922 45.0149 23.1746 48.5139 24.429C52.0129 25.6835 59.5108 29.4469 59.5108 30.7014C59.5108 31.9559 35.0177 22.7564 37.0171 24.429C39.0165 26.1017 41.5158 28.1924 41.016 28.6106C40.5161 29.0288 18.5224 19.6041 18.5224 19.6041" stroke="black"/>
</svg>
