<svg width="184" height="68" viewBox="0 0 184 68" fill="none" xmlns="http://www.w3.org/2000/svg">
<g filter="url(#filter0_d)">
<path d="M152.913 28.6667L180 60H152.913H127.573H99.6116H72.5243H46.3107H23.1553H0V28.6667V0H23.1553H46.3107H72.5243H99.6116H127.573H153.786H180L166.456 14.3333L152.913 28.6667Z" fill="#F4E3CA"/>
<ellipse cx="12.233" cy="13.8461" rx="6.1165" ry="5.38462" fill="white"/>
<ellipse cx="55.9223" cy="13.8461" rx="6.1165" ry="5.38462" fill="white"/>
<ellipse cx="55.9223" cy="44.6154" rx="6.1165" ry="5.38462" fill="white"/>
<ellipse cx="78.6408" cy="30" rx="6.1165" ry="5.38462" fill="white"/>
<ellipse cx="99.6116" cy="13.8461" rx="6.1165" ry="5.38462" fill="white"/>
<ellipse cx="99.6116" cy="44.6154" rx="6.1165" ry="5.38462" fill="white"/>
<ellipse cx="120.583" cy="30" rx="6.1165" ry="5.38462" fill="white"/>
<ellipse cx="143.301" cy="13.8461" rx="6.1165" ry="5.38462" fill="white"/>
<ellipse cx="143.301" cy="44.6154" rx="6.1165" ry="5.38462" fill="white"/>
<ellipse cx="36.699" cy="30" rx="6.1165" ry="5.38462" fill="white"/>
<ellipse cx="12.233" cy="44.6154" rx="6.1165" ry="5.38462" fill="white"/>
</g>
<defs>
<filter id="filter0_d" x="-4" y="0" width="188" height="68" filterUnits="userSpaceOnUse" color-interpolation-filters="sRGB">
<feFlood flood-opacity="0" result="BackgroundImageFix"/>
<feColorMatrix in="SourceAlpha" type="matrix" values="0 0 0 0 0 0 0 0 0 0 0 0 0 0 0 0 0 0 127 0" result="hardAlpha"/>
<feOffset dy="4"/>
<feGaussianBlur stdDeviation="2"/>
<feComposite in2="hardAlpha" operator="out"/>
<feColorMatrix type="matrix" values="0 0 0 0 0 0 0 0 0 0 0 0 0 0 0 0 0 0 0.25 0"/>
<feBlend mode="normal" in2="BackgroundImageFix" result="effect1_dropShadow"/>
<feBlend mode="normal" in="SourceGraphic" in2="effect1_dropShadow" result="shape"/>
</filter>
</defs>
</svg>
