<svg width="186" height="72" viewBox="0 0 186 72" fill="none" xmlns="http://www.w3.org/2000/svg">
<g filter="url(#filter0_d)">
<path d="M151.786 2H178L164.456 16.3333L150.913 30.6667L164.456 46.3333L178 62H150.913H125.573H97.6116H70.5243H44.3107H21.1553H-2V46.3333V30.6667V16.3333V2H21.1553H44.3107H70.5243H97.6116H125.573H150.913H151.786Z" fill="#D8BEA7"/>
<path d="M150.913 30.6667L164.456 16.3333M150.913 30.6667H-2M150.913 30.6667L164.456 46.3333M-2 30.6667V16.3333M-2 30.6667V46.3333M125.573 2H97.6116M125.573 2V62M125.573 2H150.913M164.456 16.3333L178 2H151.786H150.913M164.456 16.3333H-2M97.6116 2H70.5243M97.6116 2V62M150.913 62H178L164.456 46.3333M150.913 62H125.573M150.913 62V2M70.5243 2H44.3107M70.5243 2V62M125.573 62H97.6116M44.3107 2H21.1553M44.3107 2V62M97.6116 62H70.5243M70.5243 62H44.3107M21.1553 2H-2V16.3333M21.1553 2V62M44.3107 62H21.1553M21.1553 62H-2V46.3333M-2 46.3333H164.456" stroke="#FCE0DA" stroke-width="3"/>
</g>
<defs>
<filter id="filter0_d" x="-7.5" y="0.5" width="192.981" height="71" filterUnits="userSpaceOnUse" color-interpolation-filters="sRGB">
<feFlood flood-opacity="0" result="BackgroundImageFix"/>
<feColorMatrix in="SourceAlpha" type="matrix" values="0 0 0 0 0 0 0 0 0 0 0 0 0 0 0 0 0 0 127 0" result="hardAlpha"/>
<feOffset dy="4"/>
<feGaussianBlur stdDeviation="2"/>
<feComposite in2="hardAlpha" operator="out"/>
<feColorMatrix type="matrix" values="0 0 0 0 0 0 0 0 0 0 0 0 0 0 0 0 0 0 0.25 0"/>
<feBlend mode="normal" in2="BackgroundImageFix" result="effect1_dropShadow"/>
<feBlend mode="normal" in="SourceGraphic" in2="effect1_dropShadow" result="shape"/>
</filter>
</defs>
</svg>
